<?xml version="1.0" standalone="no"?>
<!DOCTYPE svg PUBLIC "-//W3C//DTD SVG 20010904//EN"
 "http://www.w3.org/TR/2001/REC-SVG-20010904/DTD/svg10.dtd">
<svg version="1.0" xmlns="http://www.w3.org/2000/svg"
 width="50.000000pt" height="100.000000pt" viewBox="0 0 50.000000 100.000000"
 preserveAspectRatio="xMidYMid meet">
<metadata>
Created by potrace 1.16, written by Peter Selinger 2001-2019
</metadata>
<g transform="translate(0.000000,100.000000) scale(0.100000,-0.100000)"
fill="#000000" id="svg-us" stroke="none">
<path d="M123 988 c-26 -33 -123 -209 -123 -222 0 -8 28 -63 63 -123 48 -82
69 -109 87 -111 29 -5 27 2 -47 127 -31 52 -56 100 -56 106 0 6 27 58 61 116
34 58 62 109 62 112 0 12 -37 7 -47 -5z"/>
<path d="M334 985 c3 -10 32 -61 63 -114 31 -52 56 -100 56 -106 0 -6 -27 -58
-61 -116 -34 -58 -62 -109 -62 -113 0 -4 10 -6 22 -4 16 2 39 32 85 108 34 58
62 113 63 122 0 9 -28 65 -63 125 -48 82 -69 109 -87 111 -18 3 -21 0 -16 -13z"/>
</g>
</svg>
